<svg width="22" height="22" viewBox="0 0 22 22" fill="none" xmlns="http://www.w3.org/2000/svg">
<path fill-rule="evenodd" clip-rule="evenodd" d="M13.7297 15.1739C12.5654 16.0356 16.1858 12.3335 15.1555 13.7408C15.1813 13.7387 15.1335 13.8167 14.9734 14.0123C14.9734 14.0123 17.7247 16.7452 19.0753 18.136C19.5442 18.643 18.6982 19.655 18.1235 19.1267C16.9004 17.94 14.0064 14.991 14.0019 14.9862L13.7297 15.1739V15.1739Z" fill="#212121"/>
<path d="M9.687 16.5553C11.4573 16.5382 13.2098 15.8049 14.4699 14.5595C15.9666 13.0804 16.7373 10.8921 16.4685 8.80275C16.0079 5.22259 13.0647 2.79297 9.643 2.79297C7.04322 2.79297 4.51666 4.41925 3.40841 6.77737C2.56004 8.58275 2.55832 10.7625 3.40841 12.5709C4.50875 14.9126 6.99407 16.5302 9.59866 16.5553C9.62822 16.5553 9.65779 16.5553 9.687 16.5553V16.5553ZM9.60588 15.4083C6.9621 15.3828 4.49535 13.3382 4.00482 10.7167C3.659 8.86875 4.31179 6.86881 5.67166 5.55638C7.2591 4.02359 9.75438 3.51037 11.8293 4.37903C13.6855 5.15625 15.0749 6.96094 15.331 8.94919C15.5503 10.6535 14.9388 12.4396 13.7371 13.6699C12.6828 14.7493 11.2043 15.3935 9.67979 15.4083C9.65504 15.4083 9.63063 15.4083 9.60588 15.4083V15.4083Z" fill="#212121"/>
</svg>
